<?xml version="1.0" standalone="no"?>
<svg xmlns:xlink="http://www.w3.org/1999/xlink" id="wave" style="transform:rotate(0deg); transition: 0.3s" viewBox="0 0 1440 490" version="1.1" xmlns="http://www.w3.org/2000/svg"><defs><linearGradient id="sw-gradient-0" x1="0" x2="0" y1="1" y2="0"><stop stop-color="rgba(72.549, 91.65, 152.865, 1)" offset="0%"/><stop stop-color="rgba(200, 237, 245, 1)" offset="100%"/></linearGradient></defs><path style="transform:translate(0, 0px); opacity:1" fill="url(#sw-gradient-0)" d="M0,49L21.8,57.2C43.6,65,87,82,131,106.2C174.5,131,218,163,262,147C305.5,131,349,65,393,65.3C436.4,65,480,131,524,196C567.3,261,611,327,655,343C698.2,359,742,327,785,285.8C829.1,245,873,196,916,147C960,98,1004,49,1047,81.7C1090.9,114,1135,229,1178,285.8C1221.8,343,1265,343,1309,310.3C1352.7,278,1396,212,1440,228.7C1483.6,245,1527,343,1571,318.5C1614.5,294,1658,147,1702,89.8C1745.5,33,1789,65,1833,106.2C1876.4,147,1920,196,1964,228.7C2007.3,261,2051,278,2095,277.7C2138.2,278,2182,261,2225,277.7C2269.1,294,2313,343,2356,310.3C2400,278,2444,163,2487,163.3C2530.9,163,2575,278,2618,334.8C2661.8,392,2705,392,2749,359.3C2792.7,327,2836,261,2880,245C2923.6,229,2967,261,3011,294C3054.5,327,3098,359,3120,375.7L3141.8,392L3141.8,490L3120,490C3098.2,490,3055,490,3011,490C2967.3,490,2924,490,2880,490C2836.4,490,2793,490,2749,490C2705.5,490,2662,490,2618,490C2574.5,490,2531,490,2487,490C2443.6,490,2400,490,2356,490C2312.7,490,2269,490,2225,490C2181.8,490,2138,490,2095,490C2050.9,490,2007,490,1964,490C1920,490,1876,490,1833,490C1789.1,490,1745,490,1702,490C1658.2,490,1615,490,1571,490C1527.3,490,1484,490,1440,490C1396.4,490,1353,490,1309,490C1265.5,490,1222,490,1178,490C1134.5,490,1091,490,1047,490C1003.6,490,960,490,916,490C872.7,490,829,490,785,490C741.8,490,698,490,655,490C610.9,490,567,490,524,490C480,490,436,490,393,490C349.1,490,305,490,262,490C218.2,490,175,490,131,490C87.3,490,44,490,22,490L0,490Z"/><defs><linearGradient id="sw-gradient-1" x1="0" x2="0" y1="1" y2="0"><stop stop-color="rgba(161.506, 216.615, 215.681, 1)" offset="0%"/><stop stop-color="rgba(255, 255, 255, 1)" offset="100%"/></linearGradient></defs><path style="transform:translate(0, 50px); opacity:0.9" fill="url(#sw-gradient-1)" d="M0,343L21.8,351.2C43.6,359,87,376,131,367.5C174.5,359,218,327,262,302.2C305.5,278,349,261,393,253.2C436.4,245,480,245,524,261.3C567.3,278,611,310,655,294C698.2,278,742,212,785,204.2C829.1,196,873,245,916,253.2C960,261,1004,229,1047,196C1090.9,163,1135,131,1178,171.5C1221.8,212,1265,327,1309,334.8C1352.7,343,1396,245,1440,204.2C1483.6,163,1527,180,1571,179.7C1614.5,180,1658,163,1702,138.8C1745.5,114,1789,82,1833,114.3C1876.4,147,1920,245,1964,269.5C2007.3,294,2051,245,2095,187.8C2138.2,131,2182,65,2225,81.7C2269.1,98,2313,196,2356,212.3C2400,229,2444,163,2487,171.5C2530.9,180,2575,261,2618,277.7C2661.8,294,2705,245,2749,253.2C2792.7,261,2836,327,2880,326.7C2923.6,327,2967,261,3011,261.3C3054.5,261,3098,327,3120,359.3L3141.8,392L3141.8,490L3120,490C3098.2,490,3055,490,3011,490C2967.3,490,2924,490,2880,490C2836.4,490,2793,490,2749,490C2705.5,490,2662,490,2618,490C2574.5,490,2531,490,2487,490C2443.6,490,2400,490,2356,490C2312.7,490,2269,490,2225,490C2181.8,490,2138,490,2095,490C2050.9,490,2007,490,1964,490C1920,490,1876,490,1833,490C1789.1,490,1745,490,1702,490C1658.2,490,1615,490,1571,490C1527.3,490,1484,490,1440,490C1396.4,490,1353,490,1309,490C1265.5,490,1222,490,1178,490C1134.5,490,1091,490,1047,490C1003.6,490,960,490,916,490C872.7,490,829,490,785,490C741.8,490,698,490,655,490C610.9,490,567,490,524,490C480,490,436,490,393,490C349.1,490,305,490,262,490C218.2,490,175,490,131,490C87.3,490,44,490,22,490L0,490Z"/></svg>